<svg width="57" height="57" viewBox="0 0 57 57" fill="none" xmlns="http://www.w3.org/2000/svg">
<rect width="57" height="57" rx="28.5" fill="#451C71"/>
<path fill-rule="evenodd" clip-rule="evenodd" d="M28.4933 9.97501C23.8626 9.97741 19.3837 11.6175 15.8576 14.602C12.3314 17.5866 9.98795 21.7209 9.24614 26.2658C8.50433 30.8107 9.41256 35.4698 11.8085 39.4099C14.2044 43.3501 17.9317 46.3144 22.3239 47.7728C23.2929 47.9527 23.6579 47.3521 23.6579 46.8414C23.6579 46.3308 23.6386 44.8502 23.6321 43.2315C18.2057 44.4038 17.059 40.9416 17.059 40.9416C16.174 38.6935 14.8949 38.1026 14.8949 38.1026C13.1249 36.9014 15.0274 36.9239 15.0274 36.9239C16.988 37.062 18.0184 38.9247 18.0184 38.9247C19.7561 41.8891 22.5823 41.0316 23.6935 40.5306C23.8679 39.2748 24.375 38.4205 24.9338 37.9356C20.5991 37.4474 16.0448 35.7837 16.0448 28.352C16.0179 26.4246 16.7372 24.5607 18.0539 23.1459C17.8536 22.6578 17.185 20.6858 18.2444 18.0073C18.2444 18.0073 19.8821 17.487 23.6095 19.9953C26.8067 19.126 30.1799 19.126 33.3771 19.9953C37.1013 17.487 38.7356 18.0073 38.7356 18.0073C39.7983 20.6794 39.1297 22.6514 38.9295 23.1459C40.2503 24.561 40.9711 26.4281 40.9417 28.3584C40.9417 35.8062 36.3777 37.4474 32.0366 37.9259C32.7343 38.5297 33.3577 39.7084 33.3577 41.5197C33.3577 44.1147 33.3351 46.2023 33.3351 46.8414C33.3351 47.3585 33.6871 47.9623 34.6755 47.7728C39.0683 46.3142 42.796 43.3494 45.1918 39.4085C47.5877 35.4677 48.4955 30.8079 47.7528 26.2626C47.0101 21.7173 44.6655 17.5829 41.1382 14.5989C37.6109 11.6149 33.131 9.97589 28.4997 9.97501H28.4933Z" fill="white"/>
<path d="M16.3738 37.8231C16.3318 37.9195 16.1768 37.9484 16.0508 37.8809C15.9249 37.8135 15.8312 37.6882 15.8764 37.5887C15.9216 37.4891 16.0735 37.4634 16.1994 37.5309C16.3254 37.5983 16.4223 37.7268 16.3738 37.8231Z" fill="white"/>
<path d="M17.165 38.6999C17.0982 38.7334 17.0216 38.7428 16.9486 38.7264C16.8755 38.7099 16.8104 38.6688 16.7645 38.61C16.6386 38.4751 16.6127 38.2888 16.7096 38.2053C16.8065 38.1218 16.9809 38.1603 17.1069 38.2952C17.2329 38.4301 17.2619 38.6164 17.165 38.6999Z" fill="white"/>
<path d="M17.934 39.8143C17.8144 39.8978 17.6109 39.8143 17.4979 39.6473C17.4666 39.6173 17.4418 39.5814 17.4248 39.5417C17.4078 39.502 17.399 39.4592 17.399 39.4161C17.399 39.3729 17.4078 39.3302 17.4248 39.2904C17.4418 39.2507 17.4666 39.2148 17.4979 39.1848C17.6174 39.1045 17.8209 39.1848 17.934 39.3486C18.047 39.5124 18.0502 39.7308 17.934 39.8143V39.8143Z" fill="white"/>
<path d="M18.9772 40.8935C18.8706 41.0123 18.6542 40.9802 18.4766 40.8196C18.2989 40.659 18.2569 40.4406 18.3635 40.325C18.4701 40.2094 18.6865 40.2415 18.8706 40.3989C19.0547 40.5562 19.0903 40.7778 18.9772 40.8935V40.8935Z" fill="white"/>
<path d="M20.4403 41.5229C20.3918 41.6739 20.1722 41.7413 19.9525 41.6771C19.7329 41.6128 19.5876 41.433 19.6295 41.2788C19.6715 41.1247 19.8944 41.054 20.1173 41.1247C20.3401 41.1953 20.4823 41.3655 20.4403 41.5229Z" fill="white"/>
<path d="M22.0361 41.6321C22.0361 41.7895 21.8553 41.9244 21.6227 41.9276C21.3902 41.9308 21.1996 41.8023 21.1996 41.6449C21.1996 41.4876 21.3805 41.3527 21.613 41.3495C21.8456 41.3463 22.0361 41.4715 22.0361 41.6321Z" fill="white"/>
<path d="M23.5219 41.3849C23.5509 41.5422 23.3894 41.706 23.1569 41.7446C22.9243 41.7831 22.7208 41.69 22.6918 41.5358C22.6627 41.3817 22.8306 41.2146 23.0567 41.1729C23.2828 41.1311 23.4928 41.2275 23.5219 41.3849Z" fill="white"/>
</svg>
