<svg width="54" height="54" viewBox="0 0 54 54" fill="none" xmlns="http://www.w3.org/2000/svg">
<rect width="54" height="54" rx="27" fill="#451C71"/>
<path fill-rule="evenodd" clip-rule="evenodd" d="M43.659 27.3989C43.659 26.1544 43.5473 24.9578 43.3399 23.8091H26.811V30.5978H36.2561C35.8493 32.7915 34.6128 34.6502 32.7541 35.8947V40.2981H38.4259C41.7445 37.2428 43.659 32.7436 43.659 27.3989Z" fill="#4285F4"/>
<path fill-rule="evenodd" clip-rule="evenodd" d="M26.811 44.55C31.5495 44.55 35.5222 42.9784 38.4259 40.2981L32.7541 35.8946C31.1825 36.9476 29.1723 37.5699 26.811 37.5699C22.24 37.5699 18.371 34.4827 16.991 30.3345H11.1277V34.8815C14.0155 40.6172 19.9505 44.55 26.811 44.55Z" fill="#34A853"/>
<path fill-rule="evenodd" clip-rule="evenodd" d="M16.991 30.3345C16.64 29.2815 16.4405 28.1567 16.4405 27C16.4405 25.8433 16.64 24.7185 16.991 23.6655V19.1185H11.1277C9.93905 21.4877 9.26099 24.1681 9.26099 27C9.26099 29.8319 9.93905 32.5123 11.1277 34.8815L16.991 30.3345Z" fill="#FBBC05"/>
<path fill-rule="evenodd" clip-rule="evenodd" d="M26.811 16.4301C29.3877 16.4301 31.7011 17.3156 33.5199 19.0546L38.5535 14.021C35.5142 11.189 31.5415 9.45 26.811 9.45C19.9505 9.45 14.0155 13.3828 11.1277 19.1184L16.991 23.6655C18.371 19.5173 22.24 16.4301 26.811 16.4301Z" fill="#EA4335"/>
</svg>
