<svg width="57" height="57" viewBox="0 0 57 57" fill="none" xmlns="http://www.w3.org/2000/svg">
<rect width="57" height="57" rx="28.5" fill="#451C71"/>
<path d="M41.8607 12.825H15.1392C14.5254 12.825 13.9368 13.0688 13.5028 13.5028C13.0688 13.9368 12.825 14.5255 12.825 15.1393V41.8608C12.825 42.4745 13.0688 43.0632 13.5028 43.4972C13.9368 43.9312 14.5254 44.175 15.1392 44.175H41.8607C42.4745 44.175 43.0631 43.9312 43.4971 43.4972C43.9311 43.0632 44.175 42.4745 44.1749 41.8608V15.1393C44.175 14.5255 43.9311 13.9368 43.4971 13.5028C43.0631 13.0688 42.4745 12.825 41.8607 12.825ZM22.169 39.5313H17.4556V24.5595H22.169V39.5313ZM19.809 22.4847C19.2744 22.4817 18.7526 22.3204 18.3095 22.0211C17.8665 21.7219 17.522 21.298 17.3196 20.8032C17.1172 20.3083 17.0659 19.7646 17.1722 19.2406C17.2785 18.7166 17.5376 18.2359 17.9169 17.859C18.2962 17.4822 18.7786 17.2261 19.3033 17.1232C19.8279 17.0202 20.3713 17.075 20.8649 17.2806C21.3584 17.4862 21.78 17.8334 22.0764 18.2784C22.3728 18.7233 22.5308 19.2461 22.5304 19.7808C22.5354 20.1388 22.4684 20.4941 22.3332 20.8255C22.198 21.157 21.9974 21.4579 21.7435 21.7102C21.4895 21.9625 21.1874 22.1611 20.855 22.2942C20.5227 22.4273 20.167 22.4921 19.809 22.4847ZM39.5421 39.5444H34.8309V31.3651C34.8309 28.9528 33.8055 28.2083 32.4818 28.2083C31.0842 28.2083 29.7126 29.262 29.7126 31.426V39.5444H24.9992V24.5704H29.5319V26.6451H29.5928C30.0479 25.7242 31.6415 24.1502 34.0733 24.1502C36.7032 24.1502 39.5443 25.7112 39.5443 30.283L39.5421 39.5444Z" fill="white"/>
</svg>
